<?xml version="1.0" encoding="UTF-8"?>
<!DOCTYPE svg PUBLIC "-//W3C//DTD SVG 1.1//EN" "http://www.w3.org/Graphics/SVG/1.1/DTD/svg11.dtd">
<svg xmlns="http://www.w3.org/2000/svg" version="1.1" width="256px" height="256px" style="shape-rendering:geometricPrecision; text-rendering:geometricPrecision; image-rendering:optimizeQuality; fill-rule:evenodd; clip-rule:evenodd" xmlns:xlink="http://www.w3.org/1999/xlink">
<g><path style="opacity:1" fill="#dfdfdf" d="M -0.5,-0.5 C 84.8333,-0.5 170.167,-0.5 255.5,-0.5C 255.5,84.8333 255.5,170.167 255.5,255.5C 222.167,255.5 188.833,255.5 155.5,255.5C 154.685,234.043 155.852,212.709 159,191.5C 202.467,175.347 223.8,144.014 223,97.5C 217.516,55.0226 194.35,27.5226 153.5,15C 104.137,7.59301 68.6372,26.093 47,70.5C 39.2453,94.4057 39.912,118.072 49,141.5C 53.1823,148.538 57.3489,155.538 61.5,162.5C 51.5033,192.816 44.8366,223.816 41.5,255.5C 27.5,255.5 13.5,255.5 -0.5,255.5C -0.5,170.167 -0.5,84.8333 -0.5,-0.5 Z"/></g>
<g><path style="opacity:1" fill="#0c0c0c" d="M 155.5,255.5 C 151.5,255.5 147.5,255.5 143.5,255.5C 142.852,235.068 143.852,214.734 146.5,194.5C 117.903,198.107 92.9027,190.441 71.5,171.5C 67.5461,182.649 64.2128,193.982 61.5,205.5C 60.0762,207.515 59.4095,209.848 59.5,212.5C 56.4354,226.683 54.4354,241.017 53.5,255.5C 49.5,255.5 45.5,255.5 41.5,255.5C 44.8366,223.816 51.5033,192.816 61.5,162.5C 57.3489,155.538 53.1823,148.538 49,141.5C 39.912,118.072 39.2453,94.4057 47,70.5C 68.6372,26.093 104.137,7.59301 153.5,15C 194.35,27.5226 217.516,55.0226 223,97.5C 223.8,144.014 202.467,175.347 159,191.5C 155.852,212.709 154.685,234.043 155.5,255.5 Z"/></g>
<g><path style="opacity:1" fill="#dedede" d="M 53.5,112.5 C 53.4035,104.809 53.7368,97.1421 54.5,89.5C 61.0745,60.0782 78.4078,39.5782 106.5,28C 147.997,18.0141 180.164,30.8474 203,66.5C 219.688,104.574 212.854,137.741 182.5,166C 159.98,183.069 134.98,187.735 107.5,180C 82.1494,169.984 64.9827,152.15 56,126.5C 55.4715,121.757 54.6382,117.091 53.5,112.5 Z"/></g>
<g><path style="opacity:1" fill="#111111" d="M 193.5,66.5 C 197.017,66.3511 199.017,68.0178 199.5,71.5C 198.103,74.4065 196.103,76.9065 193.5,79C 197.925,83.5443 197.258,87.0443 191.5,89.5C 189.272,88.7814 187.439,87.448 186,85.5C 179.679,90.2043 177.012,88.5376 178,80.5C 182.765,75.2277 187.931,70.5611 193.5,66.5 Z"/></g>
<g><path style="opacity:1" fill="#121212" d="M 122.5,103.5 C 123.404,102.791 123.737,101.791 123.5,100.5C 121.5,100.5 119.5,100.5 117.5,100.5C 112.779,98.1735 112.446,95.3402 116.5,92C 123.535,92.4336 130.535,93.4336 137.5,95C 140.265,97.9663 139.932,100.633 136.5,103C 134.5,103.333 132.5,103.667 130.5,104C 131.977,109.858 129.643,112.191 123.5,111C 121.354,108.643 121.021,106.143 122.5,103.5 Z"/></g>
<g><path style="opacity:1" fill="#494949" d="M 54.5,89.5 C 53.7368,97.1421 53.4035,104.809 53.5,112.5C 52.8353,109.686 52.502,106.686 52.5,103.5C 52.3541,98.576 53.0207,93.9093 54.5,89.5 Z"/></g>
<g><path style="opacity:1" fill="#595959" d="M 117.5,100.5 C 119.5,100.5 121.5,100.5 123.5,100.5C 123.737,101.791 123.404,102.791 122.5,103.5C 121.198,101.972 119.531,100.972 117.5,100.5 Z"/></g>
<g><path style="opacity:1" fill="#0c0c0c" d="M 199.5,114.5 C 202.448,114.223 205.281,114.556 208,115.5C 209.509,120.493 207.675,122.493 202.5,121.5C 197.868,138.302 187.201,149.468 170.5,155C 153.853,156.38 137.186,156.714 120.5,156C 110.688,151.403 104.688,143.737 102.5,133C 102.354,130.812 103.354,129.479 105.5,129C 125.437,126.4 145.437,124.4 165.5,123C 172.773,121.341 180.107,120.007 187.5,119C 191.837,118.095 195.837,116.595 199.5,114.5 Z"/></g>
<g><path style="opacity:1" fill="#c6c6c6" d="M 133.5,133.5 C 129.629,133.815 125.962,133.482 122.5,132.5C 144.382,131.827 166.048,129.661 187.5,126C 169.845,130.897 151.845,133.397 133.5,133.5 Z"/></g>
<g><path style="opacity:1" fill="#464646" d="M 122.5,132.5 C 125.962,133.482 129.629,133.815 133.5,133.5C 129.019,134.648 124.352,134.815 119.5,134C 120.244,132.961 121.244,132.461 122.5,132.5 Z"/></g>
<g><path style="opacity:1" fill="#c9c9c9" d="M 179.5,141.5 C 182.113,142.095 182.113,142.929 179.5,144C 174.338,146.277 169.004,147.943 163.5,149C 149.867,150.504 136.2,150.837 122.5,150C 141.828,148.311 160.828,145.478 179.5,141.5 Z"/></g>
<g><path style="opacity:1" fill="#dedede" d="M 143.5,255.5 C 113.5,255.5 83.5,255.5 53.5,255.5C 54.4354,241.017 56.4354,226.683 59.5,212.5C 60.9238,210.485 61.5905,208.152 61.5,205.5C 64.2128,193.982 67.5461,182.649 71.5,171.5C 92.9027,190.441 117.903,198.107 146.5,194.5C 143.852,214.734 142.852,235.068 143.5,255.5 Z"/></g>
<g><path style="opacity:1" fill="#6c6c6c" d="M 61.5,205.5 C 61.5905,208.152 60.9238,210.485 59.5,212.5C 59.4095,209.848 60.0762,207.515 61.5,205.5 Z"/></g>
</svg>
